<mxfile host="65bd71144e">
    <diagram id="0snlO_qEC2LmG-9za4zU" name="ページ1">
        <mxGraphModel dx="608" dy="559" grid="1" gridSize="10" guides="1" tooltips="1" connect="1" arrows="1" fold="1" page="1" pageScale="1" pageWidth="1169" pageHeight="827" background="#FFFFFF" math="0" shadow="0">
            <root>
                <mxCell id="0"/>
                <mxCell id="1" parent="0"/>
                <mxCell id="12" value="" style="rounded=0;whiteSpace=wrap;html=1;dashed=1;fontFamily=JetBrains Mono;fontSize=12;strokeColor=none;" parent="1" vertex="1">
                    <mxGeometry x="40" y="80" width="520" height="390" as="geometry"/>
                </mxCell>
                <mxCell id="6" style="edgeStyle=none;html=1;entryX=0;entryY=0.5;entryDx=0;entryDy=0;entryPerimeter=0;fontFamily=JetBrains Mono;fontSize=12;exitX=0.75;exitY=0;exitDx=0;exitDy=0;" parent="1" source="13" target="3" edge="1">
                    <mxGeometry relative="1" as="geometry"/>
                </mxCell>
                <mxCell id="7" value="generates" style="edgeLabel;html=1;align=center;verticalAlign=middle;resizable=0;points=[];fontSize=12;fontFamily=JetBrains Mono;" parent="6" vertex="1" connectable="0">
                    <mxGeometry x="0.36" y="1" relative="1" as="geometry">
                        <mxPoint x="-18" y="16" as="offset"/>
                    </mxGeometry>
                </mxCell>
                <mxCell id="2" value="*.md" style="shape=note;whiteSpace=wrap;html=1;backgroundOutline=1;darkOpacity=0.05;size=20;fontFamily=JetBrains Mono;" parent="1" vertex="1">
                    <mxGeometry x="80" y="240" width="60" height="70" as="geometry"/>
                </mxCell>
                <mxCell id="10" style="edgeStyle=orthogonalEdgeStyle;html=1;entryX=1;entryY=0.5;entryDx=0;entryDy=0;fontFamily=JetBrains Mono;fontSize=12;endArrow=none;endFill=0;startArrow=classic;startFill=1;" parent="1" source="3" target="8" edge="1">
                    <mxGeometry relative="1" as="geometry">
                        <Array as="points">
                            <mxPoint x="390" y="275"/>
                            <mxPoint x="390" y="385"/>
                        </Array>
                    </mxGeometry>
                </mxCell>
                <mxCell id="11" value="executes&lt;br&gt;&amp;lt;command&amp;gt;&lt;br&gt;[arguments]" style="edgeLabel;html=1;align=center;verticalAlign=middle;resizable=0;points=[];fontSize=12;fontFamily=JetBrains Mono;" parent="10" vertex="1" connectable="0">
                    <mxGeometry x="-0.2118" y="-1" relative="1" as="geometry">
                        <mxPoint x="51" y="22" as="offset"/>
                    </mxGeometry>
                </mxCell>
                <mxCell id="3" value="*.go" style="shape=note;whiteSpace=wrap;html=1;backgroundOutline=1;darkOpacity=0.05;size=20;fontFamily=JetBrains Mono;dashed=1;" parent="1" vertex="1">
                    <mxGeometry x="266" y="240" width="80" height="70" as="geometry"/>
                </mxCell>
                <mxCell id="5" value="&lt;h1&gt;$ godown &amp;lt;command&amp;gt; [arguments]&lt;/h1&gt;&lt;p&gt;godown generates *.go from the input markdown files.&amp;nbsp;&lt;br&gt;&lt;span&gt;Then it executes the go command with the given command and arguments.&lt;/span&gt;&lt;/p&gt;" style="text;html=1;strokeColor=none;fillColor=none;spacing=5;spacingTop=-20;whiteSpace=wrap;overflow=hidden;rounded=0;fontFamily=JetBrains Mono;" parent="1" vertex="1">
                    <mxGeometry x="80" y="110" width="450" height="130" as="geometry"/>
                </mxCell>
                <mxCell id="8" value="go" style="shape=process;whiteSpace=wrap;html=1;backgroundOutline=1;fontFamily=JetBrains Mono;fontSize=12;" parent="1" vertex="1">
                    <mxGeometry x="266" y="370" width="80" height="30" as="geometry"/>
                </mxCell>
                <mxCell id="14" value="&lt;font face=&quot;JetBrains Mono&quot; style=&quot;font-size: 12px&quot;&gt;reads&lt;/font&gt;" style="edgeStyle=none;html=1;entryX=0.5;entryY=1;entryDx=0;entryDy=0;entryPerimeter=0;strokeWidth=1;" parent="1" source="13" target="2" edge="1">
                    <mxGeometry relative="1" as="geometry"/>
                </mxCell>
                <mxCell id="15" style="edgeStyle=none;html=1;entryX=0;entryY=0.5;entryDx=0;entryDy=0;fontFamily=JetBrains Mono;" parent="1" source="13" target="8" edge="1">
                    <mxGeometry relative="1" as="geometry"/>
                </mxCell>
                <mxCell id="16" value="spawns" style="edgeLabel;html=1;align=center;verticalAlign=middle;resizable=0;points=[];fontSize=12;fontFamily=JetBrains Mono;" parent="15" vertex="1" connectable="0">
                    <mxGeometry x="0.0408" y="1" relative="1" as="geometry">
                        <mxPoint x="-5" y="1" as="offset"/>
                    </mxGeometry>
                </mxCell>
                <mxCell id="13" value="godown" style="shape=process;whiteSpace=wrap;html=1;backgroundOutline=1;fontFamily=JetBrains Mono;fontSize=12;" parent="1" vertex="1">
                    <mxGeometry x="60" y="370" width="100" height="30" as="geometry"/>
                </mxCell>
            </root>
        </mxGraphModel>
    </diagram>
</mxfile>